HIERARCHY
ROOT Hips
{
	OFFSET 0.000000 0.000000 0.000000 
	CHANNELS 6 Xposition Yposition Zposition Zrotation Yrotation Xrotation
	JOINT LeftUpLeg
	{
		OFFSET 1.363060 -1.794630 0.839290 
		CHANNELS 3 Zrotation Yrotation Xrotation
		JOINT LeftLeg
		{
			OFFSET 2.448110 -6.726130 0.000000 
			CHANNELS 3 Zrotation Yrotation Xrotation
			JOINT LeftFoot
			{
				OFFSET 2.562200 -7.039590 0.000000 
				CHANNELS 3 Zrotation Yrotation Xrotation
				JOINT LeftToeBase
				{
					OFFSET 0.157640 -0.433110 2.322550 
					CHANNELS 3 Zrotation Yrotation Xrotation
					End Site
					{
						OFFSET 0.000000 0.000000 0.000000 
					}
				}
			}
		}
	}
	JOINT RightUpLeg
	{
		OFFSET -1.305520 -1.794630 0.839290 
		CHANNELS 3 Zrotation Yrotation Xrotation
		JOINT RightLeg
		{
			OFFSET -2.542530 -6.985550 0.000000 
			CHANNELS 3 Zrotation Yrotation Xrotation
			JOINT RightFoot
			{
				OFFSET -2.568260 -7.056230 0.000000 
				CHANNELS 3 Zrotation Yrotation Xrotation
				JOINT RightToeBase
				{
					OFFSET -0.164730 -0.452590 2.363150 
					CHANNELS 3 Zrotation Yrotation Xrotation
					End Site
					{
						OFFSET 0.000000 0.000000 0.000000 
					}
				}
			}
		}
	}
	JOINT Spine
	{
		OFFSET 0.028270 2.035590 -0.193380 
		CHANNELS 3 Zrotation Yrotation Xrotation
		JOINT Spine1
		{
			OFFSET 0.056720 2.048850 -0.042750 
			CHANNELS 3 Zrotation Yrotation Xrotation
			JOINT Neck1
			{
				OFFSET -0.054170 1.746240 0.172020 
				CHANNELS 3 Zrotation Yrotation Xrotation
				JOINT Head
				{
					OFFSET 0.104070 1.761360 -0.123970 
					CHANNELS 3 Zrotation Yrotation Xrotation
					End Site
					{
						OFFSET 0.000000 0.000000 0.000000 
					}
				}
			}
			JOINT LeftArm
			{
				OFFSET 3.362410 1.200890 -0.311210 
				CHANNELS 3 Zrotation Yrotation Xrotation
				JOINT LeftForeArm
				{
					OFFSET 4.983000 -0.000000 -0.000000 
					CHANNELS 3 Zrotation Yrotation Xrotation
					JOINT LeftHand
					{
						OFFSET 3.483560 -0.000000 -0.000000 
						CHANNELS 3 Zrotation Yrotation Xrotation
						JOINT LeftHandIndex1
						{
							OFFSET 0.715260 -0.000000 -0.000000 
							CHANNELS 3 Zrotation Yrotation Xrotation
							End Site
							{
								OFFSET 0.000000 0.000000 0.000000 
							}
						}
					}
				}
			}
			JOINT RightArm
			{
				OFFSET -3.136600 1.374050 -0.404650 
				CHANNELS 3 Zrotation Yrotation Xrotation
				JOINT RightForeArm
				{
					OFFSET -5.241900 -0.000000 -0.000000 
					CHANNELS 3 Zrotation Yrotation Xrotation
					JOINT RightHand
					{
						OFFSET -3.444170 -0.000000 -0.000000 
						CHANNELS 3 Zrotation Yrotation Xrotation
						JOINT RightHandIndex1
						{
							OFFSET -0.622530 -0.000000 -0.000000 
							CHANNELS 3 Zrotation Yrotation Xrotation
							End Site
							{
								OFFSET 0.000000 0.000000 0.000000 
							}
						}
					}
				}
			}
		}
	}
}
MOTION
Frames: 17
Frame Time: 0.041667
2.545208 15.167904 -1.790107 -2.311431 1.346245 28.914143 -50.025213 -31.277363 -14.492744 1.309369 -1.055409 66.040341 8.222649 -17.794248 -2.007734 0.000000 0.000000 0.000000 43.244523 38.713145 18.853260 34.250619 -1.553522 50.528765 73.144284 3.799900 -67.690099 0.000000 0.000000 0.000000 -0.744684 -7.212913 -5.764438 -8.594110 -7.074881 -11.222702 5.172395 4.444276 11.748729 0.000000 0.000000 0.000000 32.329535 -60.643710 -179.867043 -8.627871 9.152852 0.000000 0.000000 0.000000 0.000000 0.000000 0.000000 0.000000 47.933668 15.480838 -19.471709 21.369422 -26.225729 -0.000000 0.000000 0.000000 0.000000 0.000000 0.000000 0.000000 
2.585581 15.154675 -1.735067 -1.904848 2.347599 29.548687 -50.816599 -31.271782 -14.019558 2.102513 -1.856959 66.495223 9.001853 -18.946783 -1.990269 0.000000 0.000000 0.000000 43.582962 37.508689 19.549520 32.053488 -0.285038 47.794841 72.908632 3.630640 -67.552804 0.000000 0.000000 0.000000 -0.882006 -7.604366 -5.740614 -9.092138 -8.093319 -13.256721 5.180255 4.874153 11.574404 0.000000 0.000000 0.000000 31.811921 -60.166921 179.672390 -7.966609 8.714978 0.000000 0.000000 0.000000 0.000000 0.000000 0.000000 0.000000 48.852273 14.834536 -20.772571 21.580828 -27.263600 -0.000000 0.000000 0.000000 0.000000 0.000000 0.000000 0.000000 
2.633644 15.149692 -1.685867 -1.698600 2.838580 30.257370 -51.102002 -31.450021 -14.049381 2.749583 -2.454584 66.758892 9.359539 -19.545951 -2.007994 0.000000 0.000000 0.000000 43.747041 34.929805 19.516030 27.170607 0.355066 46.023200 71.316382 0.869175 -64.006845 0.000000 0.000000 0.000000 -0.958713 -7.524460 -5.762671 -9.257239 -8.632249 -15.353454 5.352656 5.395576 11.520941 0.000000 0.000000 0.000000 32.643687 -59.122813 179.091558 -7.552686 8.529228 0.000000 0.000000 0.000000 0.000000 0.000000 0.000000 0.000000 48.743633 14.155003 -20.061881 18.546031 -26.679951 0.000000 0.000000 0.000000 0.000000 0.000000 0.000000 0.000000 
2.678885 15.140354 -1.644997 -1.446563 3.305986 30.902732 -51.361003 -31.719918 -14.098556 3.512906 -3.267489 67.126232 9.948896 -20.525421 -1.995475 0.000000 0.000000 0.000000 44.023251 32.088754 19.767424 22.471031 1.051853 43.846338 69.548303 -1.689347 -60.427371 0.000000 0.000000 0.000000 -1.001718 -7.557781 -5.760769 -9.453782 -9.060233 -17.419814 5.461337 5.960188 11.286788 0.000000 0.000000 0.000000 33.891604 -58.122715 178.703470 -7.308362 8.031488 0.000000 0.000000 0.000000 0.000000 0.000000 0.000000 0.000000 48.623732 13.174108 -20.116656 17.377230 -26.259250 0.000000 0.000000 0.000000 0.000000 0.000000 0.000000 0.000000 
2.719217 15.125182 -1.595381 -1.188072 3.828995 31.497646 -51.910376 -31.925227 -14.104077 4.327126 -3.853547 67.451884 10.073908 -20.729467 -2.001551 0.000000 0.000000 0.000000 44.480191 30.002555 20.382730 18.765379 2.090062 41.435517 67.903376 -3.510224 -57.306893 0.000000 0.000000 0.000000 -1.051388 -7.745830 -5.735300 -9.824516 -9.473190 -19.415114 5.627512 6.573982 11.185880 0.000000 0.000000 0.000000 35.381044 -57.211028 178.263040 -6.723048 7.679753 0.000000 0.000000 0.000000 0.000000 0.000000 0.000000 0.000000 48.635800 12.038555 -20.604017 14.992779 -26.734692 0.000000 0.000000 0.000000 0.000000 0.000000 0.000000 0.000000 
2.761401 15.108724 -1.544690 -0.814703 4.199331 32.038158 -52.394112 -32.007754 -14.043195 5.279353 -4.491338 67.646258 10.172666 -20.937319 -1.963447 0.000000 0.000000 0.000000 44.508711 27.215688 20.835006 14.455242 2.894880 38.606597 65.820721 -5.421906 -53.832901 0.000000 0.000000 0.000000 -1.074774 -8.001637 -5.729351 -10.161206 -9.857577 -21.422192 5.801201 7.276840 11.017407 0.000000 0.000000 0.000000 37.049898 -56.029848 177.803052 -6.465800 7.469208 0.000000 0.000000 0.000000 0.000000 0.000000 0.000000 0.000000 48.512832 11.189657 -20.203414 13.493387 -25.919913 0.000000 0.000000 0.000000 0.000000 0.000000 0.000000 0.000000 
2.799954 15.087874 -1.495617 -0.427096 4.522475 32.591037 -52.815792 -32.139211 -14.017705 6.072928 -5.123050 68.009609 10.528704 -21.445819 -1.964798 0.000000 0.000000 0.000000 44.877885 25.139582 21.531791 10.754962 3.954561 35.958000 64.573535 -6.811654 -51.199223 0.000000 0.000000 0.000000 -1.111043 -8.394931 -5.727363 -10.644558 -10.325942 -23.387560 5.894388 8.085735 10.718241 0.000000 0.000000 0.000000 38.535231 -54.833295 177.127446 -7.294867 7.622144 -0.000000 0.000000 0.000000 0.000000 0.000000 0.000000 0.000000 48.438317 10.036474 -20.347831 12.391028 -25.501557 0.000000 0.000000 0.000000 0.000000 0.000000 0.000000 0.000000 
2.832856 15.064748 -1.441971 -0.179086 4.815982 33.116504 -53.141602 -32.451438 -14.165069 6.900312 -5.837751 68.505746 10.917728 -21.993168 -1.935207 0.000000 0.000000 0.000000 45.333609 23.253966 22.430160 7.227673 5.162111 32.985571 63.799927 -7.873512 -49.142890 0.000000 0.000000 0.000000 -1.131678 -8.757682 -5.694400 -11.144626 -10.685353 -25.021579 5.977012 8.954325 10.446541 0.000000 0.000000 0.000000 40.418007 -53.352538 176.324312 -7.147228 7.905576 0.000000 0.000000 0.000000 0.000000 0.000000 0.000000 0.000000 48.054531 8.715881 -20.696706 11.549196 -25.101498 0.000000 0.000000 0.000000 0.000000 0.000000 0.000000 0.000000 
2.873304 15.046216 -1.381584 0.393211 5.028468 33.579428 -53.428226 -32.678018 -14.184690 7.613568 -6.527080 68.916670 11.398698 -22.674888 -1.964637 0.000000 0.000000 0.000000 45.473314 20.730082 23.666421 3.505072 6.270309 28.722486 62.799361 -9.353227 -46.640240 0.000000 0.000000 0.000000 -1.171834 -9.238698 -5.668972 -11.777399 -11.238314 -26.684139 6.034883 10.104876 10.027558 0.000000 0.000000 0.000000 42.828380 -52.477133 175.839696 -6.732108 7.549966 0.000000 0.000000 0.000000 0.000000 0.000000 0.000000 0.000000 47.433916 6.803899 -20.898665 11.205809 -24.035593 0.000000 0.000000 0.000000 0.000000 0.000000 0.000000 0.000000 
2.904585 15.025124 -1.318960 0.898847 5.145909 34.042761 -53.804534 -32.977561 -14.205201 8.277426 -7.234309 69.482392 12.012580 -23.471308 -2.007804 0.000000 0.000000 0.000000 45.316430 18.683416 24.597837 0.429801 7.048857 24.906530 61.850880 -10.619084 -44.446861 0.000000 0.000000 0.000000 -1.166706 -9.755866 -5.707994 -12.160125 -11.689973 -28.225112 5.997358 11.317860 9.490701 0.000000 0.000000 0.000000 45.165714 -50.923917 175.416321 -7.048918 6.956791 -0.000000 0.000000 0.000000 0.000000 0.000000 0.000000 0.000000 46.900507 5.537634 -20.971955 10.885497 -23.050803 0.000000 0.000000 0.000000 0.000000 0.000000 0.000000 0.000000 
2.941761 15.000198 -1.254211 1.572339 5.294354 34.463750 -54.205795 -33.048734 -14.071596 9.180000 -7.980628 69.723950 12.423909 -24.059314 -2.020423 0.000000 0.000000 0.000000 45.039280 16.960533 25.868998 -2.075411 7.847015 20.644981 61.834131 -11.775416 -43.284828 0.000000 0.000000 0.000000 -1.147615 -10.434313 -5.713469 -12.637826 -12.178093 -29.606840 6.073306 12.780902 9.031155 0.000000 0.000000 0.000000 47.080391 -49.542055 174.769954 -6.964421 7.120465 -0.000000 0.000000 0.000000 0.000000 0.000000 0.000000 0.000000 46.288962 4.495292 -21.321796 10.381679 -22.530082 0.000000 0.000000 0.000000 0.000000 0.000000 0.000000 0.000000 
2.975517 14.965709 -1.191552 1.895225 5.550930 34.843185 -54.698069 -33.375236 -13.991799 10.093163 -8.839318 70.232328 12.932786 -24.711968 -2.019077 0.000000 0.000000 0.000000 45.011774 15.668243 27.348654 -4.415671 8.855396 16.320818 61.772355 -13.153877 -41.742899 0.000000 0.000000 0.000000 -1.066091 -10.858321 -5.745537 -12.728772 -12.248373 -30.595999 6.127468 14.120242 8.566606 0.000000 0.000000 0.000000 49.085412 -48.225009 174.923038 -7.331312 6.007600 0.000000 0.000000 0.000000 0.000000 0.000000 0.000000 0.000000 45.805177 4.027877 -22.249537 9.065916 -23.134164 0.000000 0.000000 0.000000 0.000000 0.000000 0.000000 0.000000 
3.003502 14.933396 -1.127460 2.141039 5.709165 35.214906 -55.068230 -33.840087 -14.082787 11.002570 -9.685582 70.687291 13.230738 -25.123102 -2.043630 0.000000 0.000000 0.000000 44.632755 13.579571 29.140712 -7.945627 9.627023 10.345490 62.266891 -15.444611 -40.054007 0.000000 0.000000 0.000000 -0.943916 -11.007937 -5.871828 -12.548059 -12.147717 -31.832010 6.204583 15.393958 8.079325 0.000000 0.000000 0.000000 49.867957 -46.762577 174.890484 -8.171771 5.578340 -0.000000 0.000000 0.000000 0.000000 0.000000 0.000000 0.000000 45.214832 4.043349 -22.962662 7.365233 -23.706158 0.000000 0.000000 0.000000 0.000000 0.000000 0.000000 0.000000 
3.044156 14.904350 -1.071797 2.495356 5.615760 35.458045 -55.447914 -33.775435 -13.799829 11.891378 -10.400498 71.027246 13.893282 -25.895314 -2.136735 0.000000 0.000000 0.000000 44.430753 13.734999 29.207823 -8.435412 9.696480 10.544801 63.102758 -14.874119 -41.336169 0.000000 0.000000 0.000000 -0.890619 -11.890434 -5.910975 -12.919702 -12.378851 -32.929831 6.103984 16.840202 7.485433 0.000000 0.000000 0.000000 50.974179 -45.747319 175.267483 -6.720518 5.353522 0.000000 0.000000 0.000000 0.000000 0.000000 0.000000 0.000000 44.946114 3.818178 -23.853704 6.014892 -24.344500 0.000000 0.000000 0.000000 0.000000 0.000000 0.000000 0.000000 
3.078240 14.869547 -1.010664 2.392280 5.541021 35.810697 -55.817257 -34.035326 -13.749692 12.811063 -11.284635 71.481960 14.547019 -26.698436 -2.261011 0.000000 0.000000 0.000000 44.870154 14.619689 29.301688 -8.824820 10.349413 11.213121 63.245410 -14.379231 -41.469597 0.000000 0.000000 0.000000 -0.801190 -12.363667 -5.954945 -13.216365 -12.276452 -33.955889 5.934129 18.331568 6.856771 0.000000 0.000000 0.000000 51.615508 -45.137425 176.012111 -6.264671 4.572714 0.000000 0.000000 0.000000 0.000000 0.000000 0.000000 0.000000 44.680117 3.469257 -24.151598 4.824237 -24.295457 0.000000 0.000000 0.000000 0.000000 0.000000 0.000000 0.000000 
3.127260 14.838846 -0.961090 2.644465 5.365716 35.914178 -55.900358 -34.068485 -13.631693 13.801041 -11.987319 71.872657 15.001936 -27.173622 -2.428663 0.000000 0.000000 0.000000 44.763682 14.653313 29.573670 -9.155153 10.426041 11.438269 64.008198 -13.969061 -42.513134 0.000000 0.000000 0.000000 -0.732131 -13.294460 -5.973761 -13.905734 -12.480725 -34.899112 5.592656 19.825476 6.147726 0.000000 0.000000 0.000000 51.414874 -44.576038 176.747458 -6.307952 4.127226 -0.000000 0.000000 0.000000 0.000000 0.000000 0.000000 0.000000 44.500689 2.747516 -24.468065 3.888619 -24.179902 0.000000 0.000000 0.000000 0.000000 0.000000 0.000000 0.000000 
3.171636 14.804347 -0.904046 2.843342 5.200766 36.093227 -56.035325 -34.087304 -13.489647 14.872844 -12.769815 72.134738 15.447241 -27.663689 -2.552469 0.000000 0.000000 0.000000 44.925136 15.309268 29.969487 -9.123376 10.862887 11.830612 64.836824 -13.499105 -43.508249 0.000000 0.000000 0.000000 -0.658501 -14.123698 -5.978254 -14.741105 -12.448302 -35.534565 5.205419 21.551523 5.342253 0.000000 0.000000 0.000000 51.675568 -44.113628 178.364369 -5.454598 3.081484 -0.000000 0.000000 0.000000 0.000000 0.000000 0.000000 0.000000 44.600114 1.660187 -23.729843 3.145832 -22.936941 0.000000 0.000000 0.000000 0.000000 0.000000 0.000000 0.000000 
